<?xml version="1.0" encoding="UTF-8" standalone="no"?>
<svg
   xmlns:dc="http://purl.org/dc/elements/1.1/"
   xmlns:cc="http://creativecommons.org/ns#"
   xmlns:rdf="http://www.w3.org/1999/02/22-rdf-syntax-ns#"
   xmlns:svg="http://www.w3.org/2000/svg"
   xmlns="http://www.w3.org/2000/svg"
   xmlns:sodipodi="http://sodipodi.sourceforge.net/DTD/sodipodi-0.dtd"
   xmlns:inkscape="http://www.inkscape.org/namespaces/inkscape"
   version="1.1"
   id="svg831"
   width="546.1333"
   height="546.1333"
   viewBox="0 0 546.1333 546.1333"
   sodipodi:docname="cancel.svg"
   inkscape:version="1.0.1 (3bc2e813f5, 2020-09-07)">
  <metadata
     id="metadata837">
    <rdf:RDF>
      <cc:Work
         rdf:about="">
        <dc:format>image/svg+xml</dc:format>
        <dc:type
           rdf:resource="http://purl.org/dc/dcmitype/StillImage" />
        <dc:title></dc:title>
      </cc:Work>
    </rdf:RDF>
  </metadata>
  <defs
     id="defs835" />
  <sodipodi:namedview
     pagecolor="#ffffff"
     bordercolor="#666666"
     borderopacity="1"
     objecttolerance="10"
     gridtolerance="10"
     guidetolerance="10"
     inkscape:pageopacity="0"
     inkscape:pageshadow="2"
     inkscape:window-width="2560"
     inkscape:window-height="1377"
     id="namedview833"
     showgrid="false"
     inkscape:zoom="1.3051093"
     inkscape:cx="130.70798"
     inkscape:cy="279.37994"
     inkscape:window-x="1912"
     inkscape:window-y="-8"
     inkscape:window-maximized="1"
     inkscape:current-layer="g839" />
  <g
     inkscape:groupmode="layer"
     inkscape:label="Image"
     id="g839">
    <path
       style="opacity:0.999;fill:#ffffff;stroke:#000000;stroke-width:2.89595"
       d="m 20.795015,544.19691 c -0.948197,-0.20471 -1.723994,-0.65564 -1.723994,-1.00206 0,-0.34643 -0.948196,-0.86762 -2.107103,-1.1582 -1.158907,-0.29059 -2.664237,-1.10377 -3.345179,-1.80706 -0.680942,-0.7033 -1.985638,-1.79428 -2.899325,-2.42439 -0.9136875,-0.63012 -2.5967756,-2.52651 -3.7401958,-4.21421 -1.1434203,-1.6877 -2.2928179,-3.24094 -2.5542167,-3.45165 C 4.1636027,529.92863 3.3868358,527.80677 2.698853,525.4241 0.41835524,517.52611 1.43639,510.03732 5.7183976,503.21197 6.8702795,501.3759 58.617665,449.06035 120.71259,386.95518 182.80751,324.85 233.61244,273.71083 233.61244,273.31256 c 0,-0.39826 -50.59921,-51.36277 -112.44269,-113.25447 C 59.326271,98.166392 7.9558876,46.555553 7.0133439,45.367332 6.0708005,44.179112 5.2950034,42.775933 5.2893503,42.249157 c -0.00565,-0.526776 -0.28412,-0.957774 -0.6188154,-0.957774 -1.0507511,0 -3.2225599,-8.314682 -3.2225599,-12.337439 0,-3.48808 1.9125397,-11.23542 3.0071944,-12.181581 0.2437797,-0.21071 0.9328668,-1.333022 1.5313047,-2.494026 C 7.4654525,11.409033 11.924762,7.050743 14.5876,5.872056 15.78922,5.340168 16.772363,4.659981 16.772363,4.36053 c 0,-0.299451 1.206796,-0.770853 2.681768,-1.04756 1.474972,-0.276706 2.681768,-0.809528 2.681768,-1.184048 0,-0.374521 3.103188,-0.680947 6.895974,-0.680947 3.792786,0 6.895974,0.306426 6.895974,0.680947 0,0.37452 1.206796,0.907342 2.681768,1.184048 1.474972,0.276707 2.681768,0.832278 2.681768,1.234603 0,0.402324 0.430998,0.736125 0.957774,0.741778 0.526776,0.0056 1.935066,0.78145 3.129534,1.723993 1.194468,0.942544 52.81713,52.312927 114.717029,114.156416 61.89989,61.84348 112.85816,112.44269 113.24058,112.44269 0.38242,0 51.85458,-51.11641 114.38256,-113.59202 C 479.5144,28.301769 502.14383,6.074547 505.23721,4.590778 c 2.1071,-1.010693 4.42981,-2.131289 5.16158,-2.490213 1.75514,-0.860879 14.37701,-0.845206 14.37701,0.01785 0,0.368743 1.04117,0.878676 2.31372,1.133185 1.27254,0.254509 2.73794,0.819912 3.25643,1.256453 0.51849,0.43654 2.55646,1.992829 4.52881,3.45842 1.97235,1.46559 3.80579,3.356877 4.07428,4.20286 0.26851,0.845983 0.779,1.53815 1.13443,1.53815 0.35543,0 1.45279,1.637794 2.43858,3.639542 1.55815,3.163988 1.79235,4.769579 1.79235,12.288001 0,5.524004 -0.30871,8.845775 -0.85451,9.194632 -0.46997,0.300396 -1.11615,1.408171 -1.43595,2.461723 -0.3198,1.053551 -1.14207,2.476648 -1.82727,3.162437 -0.6852,0.68579 -1.93541,2.218093 -2.77825,3.405119 -0.84284,1.187026 -2.15304,2.694718 -2.91155,3.350427 -0.75851,0.655708 -5.06849,4.936161 -9.57774,9.512116 -4.50925,4.575956 -8.85129,8.88594 -9.64899,9.577742 -0.79769,0.691804 -2.00449,1.910483 -2.68176,2.708177 -0.67728,0.797695 -1.88408,2.004491 -2.68177,2.681768 -0.7977,0.677278 -2.00449,1.884072 -2.68177,2.681768 -0.67728,0.797695 -1.85791,2.004495 -2.62363,2.681765 -0.76572,0.67728 -3.86891,3.76715 -6.89597,6.86638 -3.02707,3.09923 -6.15642,6.20242 -6.95412,6.89597 -0.79769,0.69356 -2.00449,1.91367 -2.68176,2.71137 -0.67728,0.79769 -1.88407,2.004486 -2.68177,2.68176 -0.7977,0.67728 -2.00449,1.88408 -2.68177,2.68177 -0.67728,0.7977 -1.85874,2.00449 -2.62548,2.68177 -0.76673,0.67728 -5.07672,4.97403 -9.57774,9.54833 -4.50102,4.57431 -8.83633,8.88429 -9.63403,9.57775 -0.7977,0.69345 -2.00449,1.91348 -2.68177,2.71117 -0.67727,0.7977 -1.88407,2.00449 -2.68177,2.68177 -0.79769,0.67728 -2.00449,1.88407 -2.68176,2.68177 -0.67728,0.79769 -1.85792,2.00449 -2.62363,2.68176 -0.76572,0.67728 -3.86891,3.76715 -6.89598,6.86638 -3.02707,3.09923 -6.15641,6.20242 -6.95411,6.89597 -0.7977,0.69356 -2.00449,1.91368 -2.68177,2.71137 -0.67727,0.7977 -1.88407,2.00449 -2.68177,2.68177 -0.79769,0.67728 -2.00449,1.88407 -2.68176,2.68177 -0.67728,0.79769 -1.85202,2.00449 -2.61053,2.68176 -0.75851,0.67728 -5.06849,4.97538 -9.57774,9.55133 -4.50925,4.57597 -8.85129,8.88595 -9.64899,9.57775 -0.79769,0.6918 -2.00449,1.91048 -2.68176,2.70818 -0.67728,0.79769 -1.88408,2.00449 -2.68177,2.68176 -0.7977,0.67728 -2.00449,1.88408 -2.68177,2.68177 -0.67728,0.7977 -1.85791,2.00449 -2.62363,2.68177 -0.76572,0.67728 -3.86891,3.76715 -6.89597,6.86637 -3.02707,3.09924 -6.15642,6.20243 -6.95412,6.89598 -0.79769,0.69356 -2.00449,1.91367 -2.68176,2.71137 -0.67728,0.79769 -1.88407,2.00449 -2.68177,2.68176 -0.7977,0.67728 -2.00449,1.88408 -2.68177,2.68177 -0.67727,0.7977 -1.85201,2.00449 -2.61052,2.68177 -0.75851,0.67728 -5.0685,4.97538 -9.57775,9.55133 -4.50924,4.57596 -8.85128,8.88595 -9.64898,9.57774 -0.7977,0.69181 -2.00449,1.91049 -2.68177,2.70818 -0.67727,0.7977 -1.85874,2.00449 -2.62548,2.68177 -0.76673,0.67728 -5.07672,4.96702 -9.57774,9.53276 -10.98199,11.13992 -11.08287,11.23725 -11.64667,11.23725 -0.27074,0 -0.93327,0.82404 -1.47229,1.83121 -0.53902,1.00716 -1.76613,2.25191 -2.72691,2.7661 -0.96078,0.5142 -2.16757,1.72099 -2.68177,2.68177 -0.51419,0.96078 -1.76824,2.19287 -2.78678,2.73797 -4.93217,2.63961 -10.92179,-3.7409 109.98479,117.1625 61.98882,61.98719 112.70695,113.04681 112.70695,113.46581 0,0.41901 0.48563,0.94818 1.07917,1.17595 0.59356,0.22777 1.52218,1.50994 2.06361,2.84928 0.54143,1.33933 1.3488,2.68118 1.79415,2.98187 1.06841,0.72138 1.0943,19.61498 0.0279,20.3607 -0.43,0.3007 -1.20431,1.50789 -1.72069,2.68263 -1.03019,2.34364 -1.82416,3.38891 -4.94373,6.50847 -3.11956,3.11957 -4.16484,3.91354 -6.50847,4.94373 -1.17475,0.51638 -2.38225,1.29069 -2.68333,1.72069 -0.32203,0.45989 -4.4462,0.78181 -10.01605,0.78181 -7.99629,0 -9.67705,-0.2085 -10.80904,-1.34088 -0.73723,-0.73749 -1.83636,-1.34089 -2.44252,-1.34089 -0.60615,0 -1.69255,-0.68959 -2.41421,-1.53244 -0.72166,-0.84284 -1.55771,-1.53243 -1.85788,-1.53243 -0.30019,0 -51.26612,-50.7197 -113.25765,-112.71042 C 265.85559,304.8355 272.33533,310.91624 269.68094,315.87601 c -0.5451,1.01855 -1.77719,2.27259 -2.73797,2.78679 -0.96078,0.51419 -2.18789,1.75894 -2.72691,2.7661 -0.53902,1.00717 -1.19999,1.83121 -1.46882,1.83121 -0.26884,0 -4.43436,4.00178 -9.25671,8.89285 -4.82236,4.89107 -9.42058,9.45965 -10.21828,10.15241 -0.79769,0.69275 -2.00449,1.91222 -2.68176,2.70991 -0.67728,0.7977 -1.85202,2.00449 -2.61053,2.68177 -0.75851,0.67728 -5.06849,4.97538 -9.57774,9.55133 -4.50925,4.57596 -8.85129,8.88594 -9.64899,9.57774 -0.79769,0.69181 -2.00449,1.91049 -2.68176,2.70818 -0.67728,0.7977 -1.88408,2.00449 -2.68177,2.68177 -0.7977,0.67728 -2.00449,1.87329 -2.68177,2.6578 -0.67728,0.78452 -1.63739,1.81891 -2.13358,2.29866 -4.61576,4.46277 -17.75177,17.53926 -18.71851,18.63369 -0.67728,0.76674 -1.88407,1.9482 -2.68177,2.62548 -0.7977,0.67727 -2.01637,1.88407 -2.70818,2.68176 -0.6918,0.7977 -5.00178,5.13974 -9.57774,9.64899 -4.57595,4.50925 -8.87405,8.81923 -9.55133,9.57774 -0.67728,0.75851 -1.88407,1.93325 -2.68177,2.61053 -0.79769,0.67727 -2.00449,1.88407 -2.68177,2.68176 -0.67727,0.7977 -1.88407,2.0045 -2.68176,2.68177 -0.7977,0.67728 -2.01773,1.88407 -2.71118,2.68177 -0.69345,0.7977 -5.00344,5.13301 -9.57774,9.63403 -4.57431,4.50102 -8.87106,8.81101 -9.54834,9.57774 -0.67727,0.76674 -1.88407,1.94821 -2.68176,2.62548 -0.7977,0.67728 -2.01638,1.88407 -2.70818,2.68177 -0.6918,0.7977 -5.00178,5.13974 -9.57775,9.64898 -4.57595,4.50925 -8.87405,8.81924 -9.55133,9.57775 -0.67727,0.75851 -1.88407,1.93325 -2.68176,2.61052 -0.7977,0.67728 -2.0045,1.88407 -2.68177,2.68177 -0.67728,0.7977 -1.88407,2.00449 -2.68177,2.68177 -0.7977,0.67727 -2.01781,1.88407 -2.71137,2.68177 -0.693548,0.79769 -3.796735,3.92704 -6.89597,6.95411 -3.099227,3.02706 -6.189098,6.13025 -6.866375,6.89597 -0.677277,0.76572 -1.884072,1.94635 -2.681768,2.62363 -0.797695,0.67728 -2.004491,1.88407 -2.681768,2.68177 -0.677276,0.79769 -1.884072,2.00449 -2.681767,2.68177 -0.797696,0.67727 -2.021791,1.88407 -2.720214,2.68176 -0.698423,0.7977 -5.008407,5.13743 -9.577742,9.64385 -4.569335,4.50642 -8.862018,8.8164 -9.539296,9.57774 -0.677278,0.76134 -1.884073,1.93839 -2.681768,2.61567 -0.797694,0.67727 -1.986843,1.88407 -2.642551,2.68176 -0.655709,0.7977 -2.163401,2.13996 -3.350427,2.9828 -1.187026,0.84284 -2.719329,2.09305 -3.405119,2.77825 -0.685789,0.6852 -2.108886,1.50746 -3.162437,1.82726 -1.053552,0.31981 -2.155768,0.9566 -2.449369,1.41509 -0.548192,0.85608 -14.816724,1.45528 -18.047,0.75788 z"
       id="path1404" />
  </g>
</svg>
