<?xml version="1.0" encoding="UTF-8" standalone="no"?>
<svg
   xmlns:dc="http://purl.org/dc/elements/1.1/"
   xmlns:cc="http://creativecommons.org/ns#"
   xmlns:rdf="http://www.w3.org/1999/02/22-rdf-syntax-ns#"
   xmlns:svg="http://www.w3.org/2000/svg"
   xmlns="http://www.w3.org/2000/svg"
   xmlns:sodipodi="http://sodipodi.sourceforge.net/DTD/sodipodi-0.dtd"
   xmlns:inkscape="http://www.inkscape.org/namespaces/inkscape"
   width="145mm"
   height="145mm"
   viewBox="0 0 145 145"
   version="1.1"
   id="svg8"
   inkscape:version="1.0.1 (3bc2e813f5, 2020-09-07)"
   sodipodi:docname="derecha.svg">
  <defs
     id="defs2" />
  <sodipodi:namedview
     id="base"
     pagecolor="#ffffff"
     bordercolor="#666666"
     borderopacity="1.0"
     inkscape:pageopacity="0.0"
     inkscape:pageshadow="2"
     inkscape:zoom="0.98994949"
     inkscape:cx="280.13096"
     inkscape:cy="558.78641"
     inkscape:document-units="mm"
     inkscape:current-layer="layer1"
     inkscape:document-rotation="0"
     showgrid="false"
     inkscape:window-width="2560"
     inkscape:window-height="1377"
     inkscape:window-x="1912"
     inkscape:window-y="-8"
     inkscape:window-maximized="1" />
  <metadata
     id="metadata5">
    <rdf:RDF>
      <cc:Work
         rdf:about="">
        <dc:format>image/svg+xml</dc:format>
        <dc:type
           rdf:resource="http://purl.org/dc/dcmitype/StillImage" />
        <dc:title></dc:title>
      </cc:Work>
    </rdf:RDF>
  </metadata>
  <g
     inkscape:label="Capa 1"
     inkscape:groupmode="layer"
     id="layer1">
    <path
       style="opacity:0.999;fill:#ffffff;stroke:#000000;stroke-width:1.01015"
       d="M 58.184809,125.29769 C 57.082989,124.78462 52.132357,119.96398 30.849486,98.680156 16.555084,84.385116 4.66427,72.311316 4.425456,71.849506 4.1866423,71.387686 3.9330663,70.196656 3.8619533,69.202766 3.6114416,65.701526 1.8107216,67.743016 30.506623,38.995426 59.031222,10.419434 57.790906,11.532012 61.109794,11.54398 c 2.491153,0.009 3.564184,0.646681 7.295877,4.335914 2.737648,2.7065 3.381205,3.498113 3.847552,4.732744 0.684857,1.813125 0.585907,4.176564 -0.24145,5.766792 -0.329857,0.633995 -6.638568,7.140083 -15.670779,16.161056 -8.315258,8.30492 -15.118651,15.1885 -15.118651,15.29684 0,0.10836 21.25795,0.22903 47.239887,0.26816 l 47.2399,0.0712 1.33635,0.61569 c 3.43931,1.58457 4.67318,4.24472 4.67318,10.07509 0,1.32299 -0.12446,3.18719 -0.27657,4.14268 -0.50888,3.19655 -2.81913,5.56394 -5.9825,6.13046 -1.0793,0.19329 -16.34003,0.28401 -47.774434,0.28401 -25.403701,0 -46.185933,0.0902 -46.182739,0.20045 0.0032,0.11025 6.714347,6.90013 14.913673,15.08863 10.869864,10.855504 15.085226,15.235324 15.562643,16.169804 0.882827,1.72802 0.915947,4.76596 0.0693,6.35976 -0.942534,1.77439 -6.297782,7.20272 -7.887046,7.99468 -1.848369,0.92109 -4.071805,0.94336 -5.969215,0.0598 z"
       id="path853" />
  </g>
</svg>
