<?xml version="1.0" encoding="UTF-8" standalone="no"?>
<svg
   xmlns:dc="http://purl.org/dc/elements/1.1/"
   xmlns:cc="http://creativecommons.org/ns#"
   xmlns:rdf="http://www.w3.org/1999/02/22-rdf-syntax-ns#"
   xmlns:svg="http://www.w3.org/2000/svg"
   xmlns="http://www.w3.org/2000/svg"
   xmlns:sodipodi="http://sodipodi.sourceforge.net/DTD/sodipodi-0.dtd"
   xmlns:inkscape="http://www.inkscape.org/namespaces/inkscape"
   width="145mm"
   height="145mm"
   viewBox="0 0 145 145"
   version="1.1"
   id="svg8"
   inkscape:version="1.0.1 (3bc2e813f5, 2020-09-07)"
   sodipodi:docname="izquierda.svg">
  <defs
     id="defs2" />
  <sodipodi:namedview
     id="base"
     pagecolor="#ffffff"
     bordercolor="#666666"
     borderopacity="1.0"
     inkscape:pageopacity="0.0"
     inkscape:pageshadow="2"
     inkscape:zoom="0.98994949"
     inkscape:cx="280.13096"
     inkscape:cy="558.78641"
     inkscape:document-units="mm"
     inkscape:current-layer="layer1"
     inkscape:document-rotation="0"
     showgrid="false"
     inkscape:window-width="2560"
     inkscape:window-height="1377"
     inkscape:window-x="1912"
     inkscape:window-y="-8"
     inkscape:window-maximized="1" />
  <metadata
     id="metadata5">
    <rdf:RDF>
      <cc:Work
         rdf:about="">
        <dc:format>image/svg+xml</dc:format>
        <dc:type
           rdf:resource="http://purl.org/dc/dcmitype/StillImage" />
        <dc:title></dc:title>
      </cc:Work>
    </rdf:RDF>
  </metadata>
  <g
     inkscape:label="Capa 1"
     inkscape:groupmode="layer"
     id="layer1">
    <path
       style="opacity:0.999;fill:#ffffff;stroke:#000000;stroke-width:1.01015"
       d="m 87.279584,12.182941 c 1.10182,0.51307 6.052452,5.33371 27.335326,26.61753 14.2944,14.29504 26.18521,26.36884 26.42403,26.83065 0.23881,0.46182 0.49239,1.65285 0.5635,2.64674 0.25051,3.50124 2.05123,1.45975 -26.64467,30.20734 -28.524599,28.575989 -27.284283,27.463409 -30.603171,27.451449 -2.491153,-0.009 -3.564184,-0.64668 -7.295877,-4.33592 -2.737648,-2.7065 -3.381205,-3.49811 -3.847552,-4.73274 -0.684857,-1.81313 -0.585907,-4.17657 0.24145,-5.76679 0.329857,-0.634 6.638568,-7.14009 15.670779,-16.161059 8.315258,-8.30492 15.118651,-15.1885 15.118651,-15.29684 0,-0.10836 -21.25795,-0.22903 -47.239887,-0.26816 l -47.2398999,-0.0712 -1.33635,-0.61569 C 4.986603,77.103681 3.752733,74.443531 3.752733,68.613161 c 0,-1.32299 0.12446,-3.18719 0.27657,-4.14268 0.50888,-3.19655 2.8191301,-5.56394 5.9825,-6.13046 1.0793,-0.19329 16.34003,-0.28401 47.774434,-0.28401 25.403701,0 46.185933,-0.0902 46.182743,-0.20045 -0.003,-0.11025 -6.714351,-6.90013 -14.913677,-15.08863 -10.869864,-10.8555 -15.085226,-15.23532 -15.562643,-16.1698 -0.882827,-1.72802 -0.915947,-4.76596 -0.0693,-6.35976 0.942534,-1.77439 6.297782,-7.20272 7.887046,-7.99468 1.848369,-0.92109 4.071805,-0.94336 5.969215,-0.0598 z"
       id="path853" />
  </g>
</svg>
